<svg width="991" height="1073" viewBox="0 0 991 1073" fill="none" xmlns="http://www.w3.org/2000/svg">
<path d="M381.535 209.278C381.535 210.526 381.165 211.746 380.472 212.783C379.779 213.821 378.794 214.629 377.641 215.107C376.488 215.584 375.219 215.709 373.995 215.466C372.771 215.222 371.647 214.622 370.765 213.739C369.883 212.857 369.282 211.733 369.038 210.509C368.795 209.285 368.92 208.016 369.397 206.863C369.875 205.711 370.683 204.725 371.721 204.032C372.759 203.339 373.978 202.969 375.226 202.969C376.9 202.969 378.504 203.633 379.688 204.817C380.871 206 381.535 207.605 381.535 209.278Z" fill="white"/>
<path d="M93.65 503.452C97.1345 503.452 99.9593 500.627 99.9593 497.142C99.9593 493.658 97.1345 490.833 93.65 490.833C90.1656 490.833 87.3408 493.658 87.3408 497.142C87.3408 500.627 90.1656 503.452 93.65 503.452Z" fill="white"/>
<path d="M197.002 296.749C200.486 296.749 203.311 293.924 203.311 290.44C203.311 286.955 200.486 284.13 197.002 284.13C193.517 284.13 190.692 286.955 190.692 290.44C190.692 293.924 193.517 296.749 197.002 296.749Z" fill="white"/>
<path d="M453.363 183.44C453.359 184.063 453.17 184.671 452.821 185.187C452.472 185.703 451.977 186.104 451.401 186.339C450.824 186.575 450.19 186.634 449.58 186.51C448.969 186.386 448.409 186.084 447.97 185.642C447.531 185.2 447.233 184.638 447.113 184.026C446.993 183.415 447.057 182.782 447.296 182.206C447.535 181.631 447.94 181.14 448.458 180.794C448.976 180.448 449.585 180.264 450.208 180.264C450.625 180.261 451.038 180.341 451.424 180.5C451.809 180.659 452.159 180.893 452.453 181.189C452.747 181.485 452.979 181.836 453.135 182.223C453.291 182.609 453.369 183.023 453.363 183.44Z" fill="white"/>
<path d="M550.834 289.495C550.834 290.12 550.648 290.731 550.3 291.25C549.953 291.769 549.459 292.174 548.881 292.412C548.304 292.65 547.668 292.711 547.056 292.588C546.443 292.464 545.881 292.162 545.441 291.718C545 291.275 544.702 290.711 544.582 290.098C544.463 289.484 544.529 288.849 544.771 288.273C545.013 287.697 545.42 287.206 545.942 286.862C546.464 286.518 547.076 286.337 547.7 286.341C548.114 286.341 548.523 286.423 548.904 286.581C549.286 286.74 549.632 286.973 549.924 287.266C550.215 287.559 550.445 287.907 550.601 288.29C550.757 288.672 550.836 289.082 550.834 289.495Z" fill="white"/>
<path d="M120.647 366.215C122.389 366.215 123.801 364.803 123.801 363.06C123.801 361.318 122.389 359.906 120.647 359.906C118.905 359.906 117.492 361.318 117.492 363.06C117.492 364.803 118.905 366.215 120.647 366.215Z" fill="white"/>
<path d="M227.732 280.182C227.736 280.807 227.555 281.419 227.211 281.94C226.867 282.462 226.376 282.869 225.8 283.112C225.224 283.354 224.589 283.419 223.975 283.3C223.362 283.181 222.798 282.882 222.354 282.442C221.911 282.001 221.609 281.439 221.485 280.827C221.362 280.214 221.423 279.579 221.661 279.001C221.899 278.423 222.303 277.929 222.823 277.582C223.342 277.234 223.953 277.049 224.577 277.049C225.41 277.049 226.21 277.378 226.801 277.965C227.391 278.552 227.726 279.349 227.732 280.182Z" fill="white"/>
<path d="M372.994 177.539C374.737 177.539 376.149 176.126 376.149 174.384C376.149 172.642 374.737 171.229 372.994 171.229C371.252 171.229 369.84 172.642 369.84 174.384C369.84 176.126 371.252 177.539 372.994 177.539Z" fill="white"/>
<path d="M454.585 351.322C456.327 351.322 457.74 349.909 457.74 348.167C457.74 346.425 456.327 345.012 454.585 345.012C452.843 345.012 451.431 346.425 451.431 348.167C451.431 349.909 452.843 351.322 454.585 351.322Z" fill="white"/>
<path d="M50.8158 625.43C52.558 625.43 53.9704 624.018 53.9704 622.276C53.9704 620.533 52.558 619.121 50.8158 619.121C49.0735 619.121 47.6611 620.533 47.6611 622.276C47.6611 624.018 49.0735 625.43 50.8158 625.43Z" fill="white"/>
<path d="M103.307 672.556C105.049 672.556 106.462 671.144 106.462 669.402C106.462 667.66 105.049 666.247 103.307 666.247C101.565 666.247 100.152 667.66 100.152 669.402C100.152 671.144 101.565 672.556 103.307 672.556Z" fill="white"/>
<path d="M82.4691 691.763C84.2114 691.763 85.6237 690.351 85.6237 688.608C85.6237 686.866 84.2114 685.454 82.4691 685.454C80.7268 685.454 79.3145 686.866 79.3145 688.608C79.3145 690.351 80.7268 691.763 82.4691 691.763Z" fill="white"/>
<path d="M296.64 189.299C298.382 189.299 299.795 187.886 299.795 186.144C299.795 184.402 298.382 182.989 296.64 182.989C294.898 182.989 293.485 184.402 293.485 186.144C293.485 187.886 294.898 189.299 296.64 189.299Z" fill="white"/>
<path d="M352.5 340.141C354.243 340.141 355.655 338.729 355.655 336.986C355.655 335.244 354.243 333.832 352.5 333.832C350.758 333.832 349.346 335.244 349.346 336.986C349.346 338.729 350.758 340.141 352.5 340.141Z" fill="white"/>
<path d="M399.256 330.071C407.586 328.722 413.245 320.875 411.896 312.545C410.547 304.215 402.7 298.556 394.37 299.905C386.04 301.254 380.381 309.101 381.73 317.431C383.079 325.761 390.926 331.42 399.256 330.071Z" fill="white"/>
<path d="M70.3655 447.248C78.8041 447.248 85.645 440.407 85.645 431.968C85.645 423.53 78.8041 416.689 70.3655 416.689C61.9268 416.689 55.0859 423.53 55.0859 431.968C55.0859 440.407 61.9268 447.248 70.3655 447.248Z" fill="white"/>
<path d="M175.392 381.688C180.642 381.688 184.898 377.431 184.898 372.181C184.898 366.93 180.642 362.674 175.392 362.674C170.141 362.674 165.885 366.93 165.885 372.181C165.885 377.431 170.141 381.688 175.392 381.688Z" fill="white"/>
<path d="M533.901 461.776C539.152 461.776 543.408 457.52 543.408 452.27C543.408 447.019 539.152 442.763 533.901 442.763C528.651 442.763 524.395 447.019 524.395 452.27C524.395 457.52 528.651 461.776 533.901 461.776Z" fill="white"/>
<path d="M548.237 206.638C540.619 205.587 539.782 204.75 538.73 197.132C537.7 204.75 536.863 205.587 529.245 206.638C536.863 207.668 537.7 208.505 538.73 216.124C539.782 208.505 540.619 207.668 548.237 206.638Z" fill="white"/>
<path opacity="0.5" d="M431.517 428.663C413.428 416.821 392.298 410.471 370.678 410.38H370.334C343.764 410.372 317.608 416.958 294.21 429.548C270.812 442.137 250.904 460.337 236.271 482.514C221.638 504.691 212.737 530.153 210.366 556.617C207.995 583.081 212.229 609.719 222.687 634.144C233.146 658.569 249.502 680.017 270.29 696.565C291.078 713.113 315.647 724.243 341.795 728.958C367.943 733.674 394.853 731.826 420.111 723.582C445.37 715.337 468.188 700.953 486.519 681.72C512.503 640.791 521.302 591.267 511.005 543.892C500.708 496.518 472.146 455.114 431.517 428.663Z" fill="white" stroke="#263238" stroke-width="1.07731" stroke-miterlimit="10"/>
<path d="M417.804 428.663C417.525 428.47 417.246 428.32 416.988 428.127C459.2 465.446 486.283 522.873 486.283 587.296C486.419 625.009 476.809 662.118 458.385 695.025C463.443 690.878 468.251 686.435 472.784 681.72C498.771 640.794 507.573 591.271 497.28 543.897C486.987 496.522 458.43 455.117 417.804 428.663Z" fill="white"/>
<path d="M486.519 681.72C468.187 700.942 445.372 715.315 420.119 723.551C394.866 731.788 367.964 733.629 341.825 728.911C315.685 724.194 291.124 713.064 270.344 696.519C249.563 679.975 233.213 658.532 222.757 634.115C212.302 609.697 208.069 583.066 210.436 556.61C212.804 530.154 221.7 504.698 236.325 482.525C250.951 460.352 270.849 442.155 294.237 429.563C317.625 416.972 343.772 410.38 370.334 410.38H370.678C392.298 410.471 413.428 416.821 431.517 428.664C463.668 449.625 488.494 480.077 502.549 515.791C485.342 470.504 451.826 433.286 408.583 411.444C365.341 389.602 315.495 384.714 268.833 397.74C222.171 410.766 182.064 440.765 156.387 481.846C130.71 522.928 121.318 572.124 130.054 619.776C138.791 667.427 165.025 710.092 203.606 739.392C242.188 768.692 290.328 782.511 338.576 778.136C386.824 773.761 431.694 751.507 464.375 715.745C497.056 679.983 515.188 633.295 515.211 584.849C515.211 584.485 515.211 584.12 515.211 583.755C515.114 618.468 505.164 652.44 486.519 681.72Z" fill="white" stroke="#263238" stroke-width="1.07731" stroke-miterlimit="10"/>
<path d="M156.206 503.194C140.388 537.376 134.847 575.418 140.257 612.692C145.667 649.966 161.796 684.863 186.679 713.137" fill="white"/>
<path d="M156.206 503.194C140.388 537.376 134.847 575.418 140.257 612.692C145.667 649.966 161.796 684.863 186.679 713.137" stroke="#263238" stroke-width="2.15462" stroke-linecap="round" stroke-linejoin="round"/>
<path d="M180.37 464.051C175.326 470.395 170.682 477.046 166.464 483.966L180.37 464.051Z" fill="white"/>
<path d="M180.37 464.051C175.326 470.395 170.682 477.046 166.464 483.966" stroke="#263238" stroke-width="2.15462" stroke-linecap="round" stroke-linejoin="round"/>
<path d="M218.097 462.248C248.141 433.406 290.074 420.831 331.32 426.26C337.393 427.054 343.831 428.148 350.634 429.629C390.893 438.492 414.241 480.361 417.46 482.786C420.679 485.211 412.632 508.538 412.632 508.538C412.632 508.538 444.822 602.747 440.809 617.254C436.796 631.761 386.858 647.856 386.858 647.856L394.112 677.642L241.123 707.429C241.123 707.429 228.247 649.487 211.315 626.117C194.384 602.747 181.422 576.437 185.563 527.873C187.881 499.481 201.744 478 218.097 462.248Z" fill="white"/>
<path opacity="0.5" d="M390.979 640.731C366.707 642.19 320.397 618.67 302.756 581.909C291.903 559.684 274.1 541.603 252.047 530.405C230.541 524.278 208.058 522.34 185.821 524.697C185.692 525.727 185.563 526.843 185.478 527.809C181.336 576.373 194.319 602.683 211.23 626.052C228.14 649.422 241.038 707.364 241.038 707.364L394.026 677.578L386.772 647.791C399.659 643.559 412.176 638.277 424.199 631.997C414.027 636.16 401.837 640.066 390.979 640.731Z" fill="black"/>
<path d="M218.097 462.248C248.141 433.406 290.074 420.831 331.32 426.26C337.393 427.054 343.831 428.148 350.634 429.629C390.893 438.492 414.241 480.361 417.46 482.786C420.679 485.211 412.632 508.538 412.632 508.538C412.632 508.538 444.822 602.747 440.809 617.254C436.796 631.761 386.858 647.856 386.858 647.856L394.112 677.642L241.123 707.429C241.123 707.429 228.247 649.487 211.315 626.117C194.384 602.747 181.422 576.437 185.563 527.873C187.881 499.481 201.744 478 218.097 462.248Z" stroke="#263238" stroke-width="1.07731" stroke-miterlimit="10"/>
<path d="M374.691 471.498C374.691 471.498 376.3 473.107 361.815 473.107C347.329 473.107 322.35 470.704 314.302 477.957C306.255 485.211 293.357 506.134 298.207 506.134C303.057 506.134 309.474 498.881 314.302 498.881C318.102 498.721 321.876 498.181 325.569 497.271C325.569 497.271 305.439 509.353 312.693 510.147C319.946 510.941 352.158 506.134 360.999 500.49C369.841 494.846 376.3 490.833 377.116 486.005C377.931 481.176 380.335 477.957 374.691 471.498Z" fill="#263238" stroke="#263238" stroke-width="1.07731" stroke-miterlimit="10"/>
<path d="M408.382 470.961C407.76 472.227 404.584 477.85 398.854 477.142C395.158 476.751 391.727 475.036 389.197 472.313C389.867 475.217 390.134 478.199 389.991 481.176C389.991 487.614 390.807 492.443 394.82 497.271C398.833 502.1 412.546 508.538 412.546 508.538C412.546 508.538 417.374 494.052 417.374 482.786C416.344 482.013 413.318 477.313 408.382 470.961Z" fill="#263238" stroke="#263238" stroke-width="1.07731" stroke-miterlimit="10"/>
<path d="M386.772 494.868C386.772 494.868 418.962 510.147 420.593 514.997C422.224 519.847 412.546 538.346 412.546 538.346" fill="white"/>
<path d="M386.772 494.868C386.772 494.868 418.962 510.147 420.593 514.997C422.224 519.847 412.546 538.346 412.546 538.346" stroke="#263238" stroke-width="1.07731" stroke-miterlimit="10"/>
<path d="M420.593 515.04C420.593 515.04 372.287 544.826 378.725 548.839C385.163 552.852 402.867 546.436 407.717 542.401C412.567 538.367 421.387 525.448 420.593 515.04Z" fill="#263238" stroke="#263238" stroke-width="1.07731" stroke-miterlimit="10"/>
<path d="M413.962 557.745C413.962 557.745 396.515 562.381 390.85 562.982C385.184 563.582 374.433 571.222 379.261 571.394C384.09 571.566 402.116 563.411 406.945 563.582C411.773 563.754 419.821 563.969 420.336 561.909C421.366 557.96 413.962 557.745 413.962 557.745Z" fill="#263238" stroke="#263238" stroke-width="1.07731" stroke-miterlimit="10"/>
<path d="M387.459 650.646C385.506 650.817 383.725 650.946 382.158 651.01C364.518 651.762 341.384 650.431 318.937 639.25C308.752 633.672 299.675 626.275 292.155 617.426C315.545 604.71 340.562 595.251 366.514 589.313C369.644 588.576 372.354 586.626 374.046 583.891C375.738 581.156 376.275 577.861 375.538 574.731C374.801 571.601 372.851 568.891 370.116 567.199C367.381 565.507 364.086 564.97 360.956 565.707C331.716 572.376 303.587 583.217 277.434 597.897C259.751 569.484 249.772 531.586 266.704 496.005C290.074 446.84 339.346 434.35 356.836 431.41C354.797 430.767 352.715 430.187 350.591 429.715C343.874 428.234 337.436 427.14 331.277 426.346C290.031 420.916 248.033 433.492 218.054 462.334C201.701 478.086 187.838 499.567 185.435 527.959C181.293 576.523 194.276 602.833 211.187 626.203C228.097 649.573 240.995 707.515 240.995 707.515L393.983 677.728L387.459 650.646Z" fill="#263238"/>
<path d="M431.517 428.663C413.428 416.821 392.298 410.471 370.678 410.38H370.334C343.764 410.372 317.608 416.958 294.21 429.548C270.812 442.137 250.904 460.337 236.271 482.514C221.638 504.691 212.737 530.153 210.366 556.617C207.995 583.081 212.229 609.719 222.687 634.144C233.146 658.569 249.502 680.017 270.29 696.565C291.078 713.113 315.647 724.243 341.795 728.958C367.943 733.674 394.853 731.826 420.111 723.582C445.37 715.337 468.188 700.953 486.519 681.72C512.503 640.791 521.302 591.267 511.005 543.892C500.708 496.518 472.146 455.114 431.517 428.663V428.663Z" stroke="#263238" stroke-width="1.07731" stroke-miterlimit="10"/>
<path d="M190.071 619.017C205.898 618.533 218.17 599.885 217.482 577.365C216.794 554.845 203.406 536.98 187.579 537.464C171.752 537.948 159.48 556.596 160.168 579.116C160.856 601.636 174.244 619.5 190.071 619.017Z" fill="#263238"/>
<path d="M531.756 759.083C531.756 759.083 515.21 749.147 514.116 732.623C513.021 716.099 515.21 709.468 515.21 709.468C515.21 709.468 410.464 642.19 192.13 717.172C192.13 717.172 165.67 720.477 168.975 732.623C172.28 744.769 177.795 750.263 177.795 760.178C177.795 770.092 156.85 783.29 148.008 785.543C144.811 786.337 131.87 792.968 115.818 801.617C152.859 841.838 198.099 873.642 248.484 894.882C298.336 915.612 354.818 926.128 416.344 926.128C492.162 926.128 565.835 910.076 624.506 892.114L623.219 792.11L531.756 759.083Z" fill="white"/>
<path d="M214.942 878.894C189.362 825.244 156.378 777.41 125.969 776.723C121.87 776.723 113.093 779.728 101.183 784.857C132.711 823.218 171.335 855.145 214.942 878.894Z" fill="white"/>
<path d="M192.13 717.172C192.13 717.172 165.67 720.477 168.975 732.623C172.28 744.769 177.795 750.263 177.795 760.178C177.685 762.221 177.017 764.195 175.864 765.886C228.333 750.07 385.979 708.523 514.588 736.078C514.352 734.931 514.194 733.77 514.116 732.601C513 716.056 515.211 709.446 515.211 709.446C515.211 709.446 410.464 642.19 192.13 717.172Z" fill="#263238" stroke="#263238" stroke-width="1.07731" stroke-linejoin="round"/>
<path d="M167.73 751.1C163.996 751.107 160.355 749.929 157.333 747.735C154.311 745.542 152.063 742.445 150.913 738.893C149.763 735.34 149.77 731.514 150.933 727.965C152.097 724.416 154.356 721.329 157.386 719.146C187.945 697.064 256.467 678.372 336.191 670.368C414.906 662.47 485.359 666.955 520.039 682.106C523.931 684.205 526.893 687.69 528.337 691.87C529.782 696.05 529.604 700.619 527.838 704.674C526.073 708.729 522.849 711.972 518.805 713.762C514.761 715.552 510.192 715.758 506.004 714.339C482.226 703.952 421.623 697.171 339.818 705.369C257.025 713.695 198.954 732.602 178.117 747.645C175.111 749.874 171.472 751.085 167.73 751.1Z" fill="white" stroke="#263238" stroke-width="1.07731" stroke-miterlimit="10"/>
<path d="M303.314 701.592C309.752 700.991 316.427 700.562 323.101 700.39" stroke="#263238" stroke-width="2.15462" stroke-linecap="round" stroke-linejoin="round"/>
<path d="M162.344 743.653C200.763 724.02 242.048 710.591 284.666 703.866" stroke="#263238" stroke-width="2.15462" stroke-linecap="round" stroke-linejoin="round"/>
<path d="M169.769 772.796C163.651 778.25 156.55 782.489 148.846 785.286C172.237 801.467 195.693 838.571 214.942 878.894C225.84 884.798 237.036 890.134 248.484 894.882C249.171 895.182 249.879 895.44 250.63 895.719C221.917 825.588 185.929 787.432 169.769 772.796Z" fill="#263238"/>
<path d="M572.873 774.405C572.85 774.238 572.814 774.074 572.766 773.912L543.73 763.418C556.955 810.209 567.665 857.675 575.813 905.612C579.504 904.711 583.153 903.809 586.779 902.865L570.62 783.032C570.397 781.517 570.482 779.972 570.87 778.49C571.257 777.008 571.938 775.619 572.873 774.405Z" fill="#263238"/>
<path d="M701.161 828.356C687.277 818.034 648.885 792.217 585.986 770.414C584.108 769.764 582.096 769.605 580.139 769.952C578.183 770.298 576.348 771.14 574.808 772.396C573.268 773.651 572.075 775.28 571.343 777.127C570.61 778.973 570.361 780.977 570.62 782.947L586.78 902.779C616.973 894.95 646.748 885.588 675.989 874.731C684.258 871.684 692.42 868.322 700.475 864.645L705.582 840.052C706.035 837.884 705.86 835.631 705.077 833.559C704.294 831.487 702.935 829.682 701.161 828.356Z" fill="white"/>
<path d="M467.784 786.638L488.751 883.68L591.415 889.603L580.277 803.183L467.784 786.638Z" fill="white" stroke="#263238" stroke-width="1.07731" stroke-linecap="round" stroke-linejoin="round"/>
<path d="M467.784 786.638L454.564 806.488L474.415 904.625L488.75 883.68L467.784 786.638Z" fill="#263238" stroke="#263238" stroke-width="1.07731" stroke-linecap="round" stroke-linejoin="round"/>
<path d="M488.836 883.68L474.458 905.762L566.994 907.672C571.4 906.671 575.742 905.626 580.02 904.539L592.488 890.289L488.836 883.68Z" fill="#263238"/>
<path d="M284.708 859.151C299.322 859.151 311.168 848.621 311.168 835.631C311.168 822.641 299.322 812.111 284.708 812.111C270.095 812.111 258.248 822.641 258.248 835.631C258.248 848.621 270.095 859.151 284.708 859.151Z" fill="#263238"/>
<path d="M349.389 850.331C364.002 850.331 375.849 839.801 375.849 826.811C375.849 813.821 364.002 803.291 349.389 803.291C334.775 803.291 322.929 813.821 322.929 826.811C322.929 839.801 334.775 850.331 349.389 850.331Z" fill="#263238"/>
</svg>
