<svg width="859" height="426" viewBox="0 0 859 426" fill="none" xmlns="http://www.w3.org/2000/svg">
<path d="M17.2266 401.696C257.808 292.022 473.599 297.852 612.262 322.05C762.524 348.277 857.104 401.125 858.041 401.657L859 399.743C858.06 399.211 763.245 346.219 612.677 319.928C524.196 304.485 434.22 301.133 344.939 309.954C233.396 320.984 122.868 351.179 16.4229 399.704L17.2266 401.696Z" fill="#FAFAFA"/>
<path d="M572.569 200.257L629.536 152.319C631.944 150.28 633.501 147.317 633.871 144.07C634.241 140.822 633.395 137.55 631.515 134.959V134.959C630.542 133.619 629.323 132.503 627.931 131.68C626.54 130.857 625.005 130.344 623.421 130.172C621.836 129.999 620.236 130.172 618.716 130.679C617.196 131.185 615.79 132.015 614.582 133.119L556.845 184.842L520.514 214.699C518.683 213.604 516.579 213.134 514.487 213.353C512.396 213.573 510.419 214.471 508.824 215.926C507.23 217.382 506.096 219.323 505.576 221.487C505.056 223.651 505.176 225.933 505.919 228.022C506.662 230.111 507.992 231.906 509.729 233.164C511.465 234.422 513.524 235.081 515.626 235.053C517.727 235.024 519.769 234.308 521.475 233.003C523.18 231.698 524.466 229.866 525.158 227.757L572.569 200.257Z" fill="#FFB6B6"/>
<path d="M622.073 167.65C622.823 167.759 623.587 167.604 624.246 167.207C624.905 166.811 625.424 166.196 625.722 165.456C626.106 164.551 626.747 163.796 627.555 163.296C627.712 163.201 627.875 163.118 628.042 163.046C629.062 162.638 629.973 161.974 630.7 161.112C631.426 160.25 631.946 159.213 632.215 158.092C633.051 154.387 635.731 150.792 638.424 148.02C641.37 144.987 644.516 142.078 646.693 138.383C649.835 133.053 650.716 125.573 644.655 121.127C642.05 119.278 638.924 118.44 635.806 118.754C629.277 119.319 623.877 123.552 618.748 127.655L620.032 124.977C614.503 129.562 608.16 132.913 601.383 134.83C602.556 135.962 601.54 138.228 600.035 138.755C598.53 139.282 596.907 138.727 595.357 138.377C593.403 137.936 590.987 137.974 590.216 140.453C590.048 141.051 589.997 141.681 590.068 142.301C590.139 142.921 590.33 143.519 590.629 144.057C596.074 154.351 603.462 163.338 612.332 170.452C614.302 172.031 616.59 173.585 619.041 173.276C621.492 172.967 623.577 169.729 622.073 167.65Z" fill="#1EEC58"/>
<path d="M667.233 234.565L672.55 207.327L616.662 188.619L624.188 251.318L667.233 234.565Z" fill="#FFB6B6"/>
<path d="M618.211 210.215L672.073 234.9C672.073 234.9 678.996 234.576 678.996 230.131C678.996 225.686 675.126 224.756 680.199 221.332C685.271 217.907 687.362 220.13 686.317 214.573C685.271 209.017 684.225 207.18 684.225 205.876C684.225 204.572 685.271 199.016 685.271 193.459C685.271 190.766 677.127 185.875 679.153 170.089C681.622 150.856 680.756 121.424 663.31 115.671L650.762 92.334H626.842L619.39 115.671L610.557 127.972C610.557 127.972 593.133 151.385 598.362 163.609C603.59 175.833 618.211 210.215 618.211 210.215Z" fill="#2F2E41"/>
<path d="M511.78 247.228C511.874 227.39 514.967 207.696 520.94 188.901C522.655 183.508 524.604 178.21 526.787 173.006C527.587 171.094 530.338 172.519 529.537 174.432C522.117 192.17 517.421 211.058 515.627 230.376C515.115 235.897 514.849 241.433 514.83 246.984C514.82 249.062 511.77 249.324 511.78 247.228V247.228Z" fill="#3F3D56"/>
<path d="M527.104 170.485L525.375 175.935C540.064 174.378 541.826 154.725 551.499 142.88C561.178 131.048 578.659 127.143 578.054 111.474C577.963 109.207 577.627 106.671 575.953 105.256C573.859 103.506 570.8 104.368 568.341 105.452C565.745 106.607 563.226 107.948 560.801 109.467C560.035 111.635 559.271 113.803 558.509 115.971C558.251 116.715 557.801 117.366 557.21 117.849C556.619 118.333 555.911 118.629 555.169 118.703C554.426 118.778 553.679 118.628 553.014 118.27C552.348 117.913 551.791 117.363 551.407 116.683L551.37 116.614C522.111 116.568 518.757 142.105 527.104 170.485Z" fill="#1EEC58"/>
<path d="M526.328 176.655C533.516 179.678 539.584 173.239 546.762 170.199C553.95 167.147 562.178 167.533 565.444 160.079C565.737 159.57 565.926 159.001 565.999 158.409C566.071 157.817 566.026 157.216 565.866 156.644C565.29 155.288 563.668 154.918 562.279 154.79C560.343 154.626 558.397 154.647 556.465 154.852C555.997 155.748 555.539 156.654 555.072 157.56C554.28 159.091 553.498 160.62 552.707 162.15C551.275 160.446 550.1 158.516 549.224 156.43C535.986 150.55 530.215 161.002 528.368 174.558L526.328 176.655Z" fill="#1EEC58"/>
<path d="M528.321 176.496C521.639 180.626 514.733 175.223 507.208 173.357C499.672 171.482 491.591 173.17 487.313 166.318C486.951 165.861 486.685 165.329 486.53 164.755C486.375 164.182 486.335 163.58 486.412 162.989C486.792 161.557 488.343 160.933 489.699 160.586C491.59 160.117 493.517 159.828 495.456 159.724C496.045 160.535 496.625 161.358 497.215 162.181C498.213 163.568 499.201 164.956 500.198 166.343C501.374 164.431 502.264 162.336 502.837 160.134C515.1 152.218 522.276 161.636 526.009 174.746L528.321 176.496Z" fill="#1EEC58"/>
<path d="M528.19 176.78C520.95 173.902 520.511 164.8 517.103 157.43C513.696 150.045 507.348 144.469 509.628 136.611C509.732 136.025 509.951 135.468 510.27 134.977C510.59 134.486 511.003 134.072 511.482 133.762C512.766 133.167 514.202 134.048 515.314 134.943C516.853 136.201 518.284 137.602 519.588 139.131C519.37 140.13 519.138 141.128 518.913 142.133C518.535 143.833 518.15 145.524 517.772 147.223C519.909 146.979 521.998 146.385 523.964 145.461C537.496 150.532 535.183 162.397 528 173.771L528.19 176.78Z" fill="#1EEC58"/>
<path d="M648.795 68.8138C631.213 83.0266 611.633 94.3381 607.942 109.979C607.942 109.979 610.153 85.4036 599.84 90.0618C582.512 97.8887 588.375 55.3232 593.234 48.3628C601.333 36.7623 628.641 30.1707 628.641 30.1707L648.014 41.4719L648.795 68.8138Z" fill="#2F2E41"/>
<path d="M618.179 86.0612C601.409 86.0612 587.814 71.6144 587.814 53.7933C587.814 35.9722 601.409 21.5254 618.179 21.5254C634.949 21.5254 648.544 35.9722 648.544 53.7933C648.544 71.6144 634.949 86.0612 618.179 86.0612Z" fill="#FFB6B6"/>
<path d="M629.115 41.4469L630.283 46.9007L609.857 51.8422C609.839 50.7392 609.607 49.6521 609.175 48.6491C608.742 47.6461 608.12 46.7488 607.346 46.0136C607.786 48.1521 607.736 50.3719 607.199 52.4854C596.183 59.0542 596.816 61.3813 587.913 59.7062C586.707 59.998 585.441 59.7687 584.394 59.0687C583.347 58.3687 582.604 57.2553 582.33 55.9735C578.748 39.2524 577.57 22.1622 593.228 18.0118C597.034 17.0005 600.992 16.8069 604.869 17.4423C608.747 18.0777 612.465 19.5294 615.808 21.7121C619.15 23.8948 622.049 26.7647 624.334 30.1535C626.619 33.5424 628.245 37.3819 629.115 41.447L629.115 41.4469Z" fill="#2F2E41"/>
<path d="M624.119 63.2061C623.119 58.5481 621.158 54.1841 618.379 50.4288C615.599 46.6735 612.07 43.6207 608.046 41.4904C604.022 39.3602 599.603 38.2057 595.108 38.1103C590.613 38.0148 586.154 38.9808 582.053 40.9385C583.473 36.483 586.348 32.7155 590.157 30.318L613.149 19.7105C624.49 16.9669 642.442 9.17984 650.634 16.637C658.181 23.4874 654.508 36.897 661.458 44.407C669.074 52.6373 669.721 62.3691 667.561 67.9664C665.062 74.442 660.063 83.2767 653.824 85.1889C653.5 82.9099 652.43 80.8253 650.803 79.3012C651.253 81.4731 651.292 83.7183 650.918 85.9064L613.149 117.917C616.676 114.657 619.682 106.256 621.752 96.7941C622.977 91.1933 630.287 89.2277 624.358 79.7222C618.43 70.2168 624.924 66.9639 624.119 63.2061Z" fill="#2F2E41"/>
<path d="M654.37 27.5019L654.264 27.7271C654.134 28.0274 654.005 28.3276 653.899 28.6404L653.887 28.6529C653.31 28.8781 652.663 28.5153 652.027 27.9398C652.126 29.2927 652.197 30.6019 652.25 31.8849L632.142 23.5235C635.639 24.165 636.156 10.9439 638.665 13.4774C638.806 13.615 638.935 13.7526 639.065 13.8902C638.753 13.0931 638.539 12.2562 638.429 11.4006C638.322 10.3267 638.402 9.24106 638.665 8.1979C638.669 8.19297 638.672 8.18704 638.674 8.18054C638.677 8.17404 638.677 8.16713 638.676 8.16033C638.927 7.21707 639.316 6.32189 639.83 5.50806C640.571 4.32447 641.508 3.29427 642.597 2.46797C643.985 1.34045 645.604 0.576213 647.322 0.237147C649.04 -0.101918 650.809 -0.00628955 652.486 0.516294C656.327 2.06032 659.502 5.04696 661.41 8.91095C662.999 11.9511 664.212 15.3665 663.965 18.832C663.893 19.7506 663.707 20.655 663.411 21.5218C663.044 22.739 662.418 23.8498 661.58 24.7677C660.743 25.6856 659.718 26.3858 658.584 26.8138C658.302 26.9139 657.972 27.0265 657.619 27.1641C657.431 25.5362 657.419 23.8907 657.584 22.2599C656.275 23.829 655.192 25.5955 654.37 27.5019Z" fill="#2F2E41"/>
<path d="M634.897 22.6729C634.923 23.3707 635.002 24.0652 635.133 24.7496C635.143 24.8383 635.159 24.9261 635.18 25.0124C636.004 28.9032 640.466 20.8088 643.915 23.5236C646.576 25.6129 648.048 26.0508 650.979 27.2768C651.085 26.9641 652.027 27.5771 652.156 27.2768C652.192 27.2018 652.121 26.1008 652.156 26.0257C649.296 24.8121 648.825 24.2742 646.27 22.2726C643.032 19.7328 643.492 22.1099 642.738 18.5193C641.867 14.3783 636.734 16.1548 639.371 14.1906L639.065 13.7402C637.192 15.1145 635.811 17.1202 635.145 19.4326C635.145 19.4394 635.145 19.4463 635.143 19.4528C635.141 19.4593 635.137 19.4652 635.133 19.4701C634.936 20.5241 634.857 21.5992 634.897 22.6729Z" fill="#1EEC58"/>
<path d="M183.444 400.545H205.416L215.409 345.519C215.56 344.682 215.536 343.821 215.338 342.995C215.14 342.17 214.773 341.401 214.263 340.744C213.752 340.087 213.112 339.558 212.386 339.195C211.661 338.832 210.87 338.644 210.068 338.644H178.791C177.99 338.644 177.198 338.832 176.473 339.195C175.748 339.558 175.107 340.087 174.597 340.744C174.086 341.401 173.719 342.17 173.521 342.995C173.323 343.821 173.299 344.682 173.451 345.519L183.444 400.545Z" fill="#FAFAFA"/>
<path d="M316.034 400.908C316.177 400.977 338.149 400.977 338.006 401.044C345.901 387.147 348.961 375.401 349.974 366.805C350.197 364.836 350.024 362.84 349.469 360.947C348.913 359.055 347.987 357.308 346.751 355.823C345.515 354.338 343.997 353.148 342.298 352.33C340.598 351.513 338.755 351.087 336.889 351.081L317.001 350.957C315.262 350.945 313.537 351.296 311.926 351.992C310.314 352.688 308.848 353.714 307.609 355.013C306.371 356.311 305.386 357.856 304.71 359.559C304.034 361.262 303.681 363.09 303.67 364.939C303.626 375.386 305.824 389.708 316.034 400.908Z" fill="#FAFAFA"/>
<path d="M327.388 352.739C326.312 343.462 326.746 334.057 328.67 324.936C328.991 323.405 331.204 324.053 330.882 325.584C329.02 334.496 328.614 343.681 329.682 352.739C329.864 354.292 327.568 354.278 327.388 352.739V352.739Z" fill="#FAFAFA"/>
<path d="M324.315 353.346C323.799 345.61 321.978 338.035 318.942 330.983C318.331 329.567 320.307 328.327 320.923 329.753C324.137 337.19 326.064 345.182 326.61 353.346C326.714 354.911 324.42 354.904 324.315 353.346V353.346Z" fill="#FAFAFA"/>
<path d="M330.735 353.096C331.401 344.434 333.735 336.011 337.592 328.347C338.289 326.963 340.271 328.193 339.573 329.577C335.902 336.859 333.675 344.864 333.029 353.096C332.909 354.649 330.613 354.663 330.735 353.096Z" fill="#FAFAFA"/>
<path d="M338.411 327.538C339.72 327.031 339.867 324.91 340.172 323.69C340.381 322.754 340.718 321.855 341.172 321.023C341.693 320.194 342.288 319.419 342.948 318.71C343.488 318.184 343.927 317.551 344.24 316.847C344.336 316.577 344.362 316.285 344.317 316C344.274 315.878 344.242 315.751 344.221 315.622L344.204 315.58C344.132 315.431 344.241 315.453 344.531 315.645C344.53 315.664 343.976 315.99 343.918 316.037C342.333 317.354 341.122 319.111 340.416 321.113C339.71 323.115 339.538 325.285 339.918 327.384C340.215 328.916 338.004 329.571 337.705 328.032C337.206 325.415 337.416 322.7 338.31 320.204C339.205 317.708 340.748 315.533 342.76 313.932C343.279 313.475 343.934 313.227 344.608 313.232C345.012 313.278 345.394 313.45 345.707 313.725C346.02 314.001 346.249 314.368 346.367 314.781C346.563 315.34 346.646 315.937 346.61 316.532C346.575 317.127 346.421 317.707 346.161 318.235C345.207 320.254 343.234 321.413 342.574 323.635C341.842 326.101 341.642 328.873 339.021 329.889C338.728 329.972 338.415 329.929 338.151 329.77C337.888 329.611 337.693 329.348 337.61 329.038C337.535 328.726 337.577 328.396 337.726 328.116C337.876 327.837 338.121 327.63 338.411 327.538V327.538Z" fill="#FAFAFA"/>
<path d="M329.213 324.28C330.574 323.756 330.705 321.795 331.072 320.533C331.749 318.648 332.758 316.918 334.046 315.437C334.565 314.84 334.935 314.115 335.122 313.327C335.143 313.176 335.147 313.022 335.133 312.87C335.119 312.724 335.004 312.497 335.023 312.364L335.006 312.322C334.934 312.173 335.043 312.195 335.333 312.388C335.266 312.414 335.201 312.444 335.138 312.48C334.965 312.637 334.747 312.754 334.566 312.908C333.11 314.152 331.986 315.779 331.304 317.627C330.523 319.688 330.321 321.945 330.72 324.127C331.017 325.658 328.806 326.313 328.508 324.775C328.02 322.217 328.208 319.567 329.052 317.116C329.896 314.666 331.363 312.512 333.29 310.895C333.754 310.46 334.313 310.155 334.915 310.005C335.318 309.931 335.732 309.991 336.1 310.178C336.469 310.365 336.773 310.67 336.971 311.05C337.243 311.599 337.399 312.205 337.429 312.826C337.459 313.446 337.362 314.066 337.144 314.642C336.333 316.856 334.325 318.262 333.515 320.463C333.086 321.628 332.908 322.876 332.441 324.029C332.205 324.636 331.849 325.182 331.397 325.631C330.946 326.08 330.409 326.421 329.823 326.631C328.433 327.167 327.834 324.812 329.213 324.28H329.213Z" fill="#FAFAFA"/>
<path d="M319.006 329.813C319.891 328.074 318.653 326.009 318.139 324.34C317.585 322.544 317.669 320.666 317.273 318.844C317.164 318.101 316.811 317.424 316.276 316.933C316.13 316.816 315.669 316.683 316.032 316.628C316.298 316.588 316.169 316.636 316.098 316.908C315.992 317.323 315.92 317.747 315.883 318.175C315.708 320.056 315.959 321.955 316.614 323.713C317.313 325.627 318.491 327.301 320.022 328.555C320.278 328.725 320.462 328.992 320.539 329.302C320.615 329.612 320.578 329.941 320.434 330.223C320.279 330.5 320.027 330.702 319.733 330.783C319.439 330.865 319.127 330.821 318.864 330.66C317.008 329.179 315.548 327.208 314.631 324.942C313.714 322.676 313.371 320.195 313.636 317.744C313.784 316.518 313.997 314.879 315.263 314.398C316.502 313.928 317.761 314.883 318.496 315.889C319.868 317.768 319.613 320.216 320.031 322.422C320.591 325.379 322.521 328.029 320.987 331.044C320.284 332.425 318.303 331.195 319.006 329.813V329.813Z" fill="#FAFAFA"/>
<path d="M328.714 315.695C329.665 313.842 328.728 311.763 328.255 309.904C327.965 308.062 327.577 306.238 327.093 304.443C326.865 303.768 326.451 303.181 325.905 302.76C325.795 302.686 325.682 302.621 325.564 302.564C325.576 302.482 325.912 302.512 325.9 302.485C325.869 302.657 325.822 302.825 325.761 302.988C325.67 303.411 325.606 303.84 325.573 304.273C325.438 306.084 325.694 307.904 326.322 309.595C327.021 311.509 328.2 313.183 329.73 314.436C329.986 314.606 330.171 314.874 330.247 315.184C330.324 315.494 330.286 315.823 330.142 316.104C329.987 316.382 329.735 316.583 329.442 316.665C329.148 316.747 328.836 316.703 328.572 316.542C326.729 315.073 325.277 313.12 324.358 310.874C323.439 308.629 323.086 306.168 323.332 303.734C323.466 302.571 323.628 301.048 324.697 300.403C325.87 299.696 327.216 300.581 328.024 301.501C329.578 303.269 329.76 305.732 330.186 307.99C330.759 311.024 332.234 313.928 330.695 316.926C329.988 318.304 328.006 317.075 328.714 315.695V315.695Z" fill="#FAFAFA"/>
<path d="M321.858 338.985C321.033 337.56 319.362 337.417 317.946 337.149C317.059 336.997 316.188 336.759 315.343 336.438C314.424 336.074 313.541 335.615 312.614 335.276C311.84 334.908 310.972 334.827 310.15 335.045C310.104 335.062 309.585 335.365 309.565 335.354C309.492 335.312 309.691 335.033 309.674 335.032C309.685 335.033 309.765 335.159 309.782 335.171C310.133 335.428 310.424 335.799 310.773 336.067C312.206 337.159 313.863 337.873 315.607 338.149C317.54 338.469 319.518 338.217 321.324 337.421C321.589 337.268 321.898 337.228 322.19 337.309C322.481 337.39 322.733 337.587 322.893 337.858C323.045 338.138 323.086 338.469 323.009 338.781C322.932 339.094 322.743 339.361 322.482 339.526C320.293 340.528 317.892 340.888 315.528 340.568C313.164 340.249 310.924 339.262 309.041 337.71C308.106 336.928 307.069 335.885 307.462 334.492C307.826 333.201 309.344 332.63 310.477 332.502C312.947 332.222 315.121 334 317.445 334.566C319.873 335.156 322.395 335.258 323.839 337.755C324.614 339.095 322.631 340.321 321.858 338.985H321.858Z" fill="#FAFAFA"/>
<path d="M327.881 324.155C328.774 321.947 328.875 319.468 328.164 317.188C327.453 314.907 325.979 312.982 324.023 311.778C323.934 311.723 323.845 311.671 323.754 311.62C323.586 311.59 323.56 311.548 323.677 311.496C323.49 310.825 323.75 311.351 323.819 311.521C324.027 312.037 324.239 312.552 324.453 313.065C324.931 314.211 325.422 315.351 325.926 316.485C326.964 318.822 328.049 321.138 329.237 323.394C329.959 324.765 327.978 325.995 327.256 324.625C326.106 322.44 325.052 320.199 324.044 317.937C323.55 316.831 323.069 315.719 322.6 314.6C322.393 314.109 322.19 313.617 321.989 313.124C321.707 312.596 321.516 312.02 321.424 311.422C321.424 311.096 321.489 310.774 321.614 310.477C321.739 310.179 321.922 309.913 322.151 309.695C322.379 309.478 322.648 309.314 322.94 309.214C323.232 309.114 323.54 309.081 323.845 309.116C324.974 309.428 326.007 310.046 326.842 310.912C328.531 312.41 329.779 314.393 330.436 316.625C331.253 319.522 331.049 322.636 329.863 325.385C329.708 325.663 329.456 325.864 329.162 325.946C328.868 326.028 328.556 325.983 328.293 325.822C328.036 325.654 327.85 325.387 327.773 325.076C327.697 324.765 327.735 324.435 327.881 324.154L327.881 324.155Z" fill="#FAFAFA"/>
<path d="M336.087 336.106C337.734 336.892 339.744 335.393 341.22 334.749C342.87 334.03 344.635 333.96 346.316 333.388C346.949 333.205 347.502 332.794 347.882 332.227C347.934 332.111 347.994 332.001 348.063 331.895C348.004 331.91 348.309 332.111 348.178 332.082C348.06 332.057 347.943 332.026 347.825 332.004C347.399 331.931 346.969 331.894 346.538 331.893C344.698 331.865 342.88 332.33 341.254 333.245C339.627 334.16 338.243 335.494 337.229 337.127C336.432 338.442 334.446 337.221 335.247 335.896C336.513 333.824 338.268 332.14 340.338 331.014C342.407 329.887 344.718 329.357 347.04 329.476C348.19 329.554 349.597 329.689 350.188 330.91C350.791 332.158 349.912 333.684 349.036 334.514C347.356 336.108 345.034 336.022 342.988 336.66C341.623 337.085 340.393 337.875 339.05 338.365C337.712 338.895 336.23 338.839 334.929 338.211C334.668 338.046 334.479 337.779 334.402 337.467C334.325 337.155 334.366 336.823 334.518 336.543C334.676 336.27 334.928 336.072 335.22 335.991C335.512 335.909 335.823 335.95 336.087 336.106V336.106Z" fill="#FAFAFA"/>
<path d="M54.1938 400.417C54.337 400.486 76.309 400.486 76.1654 400.553C84.0609 386.656 87.1213 374.91 88.1342 366.313C88.3564 364.345 88.1841 362.349 87.6285 360.456C87.073 358.563 86.1468 356.817 84.9109 355.332C83.675 353.847 82.1573 352.656 80.4576 351.839C78.7579 351.022 76.9146 350.596 75.0489 350.589L55.161 350.466C53.4216 350.453 51.6969 350.805 50.0855 351.501C48.474 352.197 47.0073 353.223 45.7693 354.522C44.5313 355.82 43.5462 357.365 42.8702 359.068C42.1943 360.771 41.8407 362.599 41.8298 364.448C41.7854 374.895 43.9842 389.217 54.1938 400.417Z" fill="#FAFAFA"/>
<path d="M65.5475 352.248C64.4718 342.971 64.9056 333.566 66.8298 324.445C67.1512 322.914 69.3636 323.562 69.0422 325.093C67.1794 334.004 66.7733 343.19 67.8418 352.248C68.0233 353.801 65.7274 353.787 65.5475 352.248V352.248Z" fill="#FAFAFA"/>
<path d="M62.4753 352.854C61.9586 345.118 60.1383 337.544 57.1014 330.492C56.4904 329.076 58.4672 327.836 59.0824 329.262C62.297 336.699 64.2235 344.691 64.7696 352.854C64.8743 354.42 62.5796 354.413 62.4753 352.854Z" fill="#FAFAFA"/>
<path d="M68.8949 352.605C69.5613 343.943 71.8953 335.519 75.7522 327.856C76.4492 326.472 78.4305 327.702 77.7333 329.086C74.0622 336.368 71.835 344.373 71.1892 352.605C71.0686 354.158 68.7732 354.171 68.8949 352.605V352.605Z" fill="#FAFAFA"/>
<path d="M76.5708 327.047C77.8797 326.539 78.027 324.418 78.332 323.199C78.5409 322.263 78.8777 321.364 79.3317 320.532C79.8528 319.702 80.4475 318.928 81.1075 318.219C81.6481 317.693 82.0869 317.06 82.3996 316.356C82.4957 316.086 82.5223 315.793 82.4765 315.509C82.4334 315.386 82.4014 315.26 82.3808 315.131L82.3639 315.089C82.2919 314.94 82.4008 314.962 82.6905 315.154C82.6902 315.173 82.1358 315.499 82.0775 315.546C80.4931 316.863 79.2814 318.619 78.5757 320.622C77.87 322.624 77.6977 324.794 78.0776 326.893C78.3747 328.424 76.1637 329.079 75.8653 327.541C75.3659 324.923 75.5757 322.209 76.4703 319.713C77.365 317.217 78.9078 315.042 80.9195 313.44C81.4392 312.984 82.0937 312.736 82.7681 312.74C83.172 312.787 83.554 312.958 83.8667 313.234C84.1794 313.51 84.4089 313.877 84.5266 314.29C84.7224 314.849 84.8053 315.445 84.7698 316.04C84.7343 316.636 84.5813 317.216 84.3206 317.744C83.3671 319.763 81.3937 320.922 80.7339 323.144C80.0015 325.61 79.8018 328.382 77.1808 329.398C76.8875 329.481 76.5753 329.438 76.3113 329.279C76.0474 329.119 75.8529 328.856 75.7697 328.546C75.6952 328.235 75.7369 327.905 75.8862 327.625C76.0356 327.346 76.2809 327.138 76.5708 327.047V327.047Z" fill="#FAFAFA"/>
<path d="M67.3732 323.788C68.7336 323.264 68.8649 321.304 69.2322 320.041C69.9084 318.157 70.9179 316.427 72.206 314.945C72.7251 314.349 73.0951 313.623 73.282 312.836C73.3032 312.684 73.3069 312.531 73.2931 312.378C73.2788 312.232 73.1637 312.006 73.1831 311.872L73.1663 311.831C73.0943 311.682 73.2032 311.704 73.4929 311.896C73.4262 311.922 73.3612 311.953 73.2983 311.988C73.1252 312.145 72.9065 312.262 72.7256 312.416C71.2701 313.66 70.1457 315.287 69.4635 317.135C68.6832 319.196 68.4806 321.454 68.88 323.635C69.177 325.166 66.966 325.821 66.6677 324.283C66.1795 321.726 66.3679 319.075 67.2121 316.625C68.0562 314.174 69.5229 312.021 71.4494 310.403C71.9141 309.968 72.4727 309.663 73.0753 309.514C73.4776 309.439 73.8918 309.499 74.2602 309.686C74.6286 309.874 74.9328 310.178 75.1304 310.558C75.4026 311.108 75.5591 311.714 75.5891 312.334C75.6191 312.954 75.5218 313.574 75.3041 314.15C74.4926 316.364 72.4847 317.77 71.6748 319.971C71.246 321.137 71.0679 322.385 70.6007 323.537C70.3646 324.144 70.0087 324.691 69.5572 325.14C69.1057 325.588 68.569 325.929 67.9832 326.139C66.5929 326.675 65.9938 324.32 67.3732 323.788L67.3732 323.788Z" fill="#FAFAFA"/>
<path d="M57.1655 329.322C58.0509 327.582 56.8126 325.518 56.2986 323.849C55.7453 322.053 55.8284 320.175 55.4329 318.353C55.3242 317.61 54.9707 316.933 54.4355 316.442C54.2901 316.325 53.8286 316.192 54.192 316.137C54.4582 316.097 54.3289 316.145 54.2574 316.417C54.1521 316.832 54.0802 317.256 54.0424 317.684C53.8681 319.565 54.1188 321.464 54.7736 323.221C55.4726 325.136 56.6512 326.81 58.1817 328.063C58.4373 328.233 58.6222 328.501 58.6987 328.811C58.7752 329.121 58.7374 329.45 58.5932 329.731C58.4383 330.009 58.1867 330.21 57.893 330.292C57.5992 330.374 57.287 330.33 57.0238 330.169C55.1675 328.688 53.7082 326.717 52.7911 324.451C51.874 322.185 51.5309 319.703 51.796 317.253C51.9434 316.027 52.1564 314.388 53.4225 313.907C54.6618 313.437 55.9207 314.391 56.6556 315.398C58.0278 317.277 57.773 319.725 58.1905 321.93C58.7503 324.887 60.6809 327.538 59.1466 330.553C58.444 331.933 56.4625 330.704 57.1655 329.322V329.322Z" fill="#FAFAFA"/>
<path d="M66.8742 315.204C67.8252 313.351 66.8878 311.272 66.4145 309.413C66.1246 307.571 65.7366 305.747 65.2525 303.952C65.0245 303.277 64.6105 302.69 64.0644 302.269C63.9554 302.195 63.8417 302.13 63.7241 302.073C63.7359 301.99 64.072 302.021 64.0603 301.994C64.0285 302.166 63.982 302.334 63.9213 302.497C63.8294 302.92 63.7664 303.349 63.7326 303.782C63.5978 305.593 63.8542 307.413 64.4822 309.103C65.1812 311.018 66.3599 312.692 67.8903 313.945C68.1459 314.115 68.3308 314.383 68.4073 314.693C68.4837 315.002 68.446 315.332 68.3018 315.613C68.1469 315.891 67.8953 316.092 67.6016 316.174C67.3078 316.256 66.9956 316.211 66.7324 316.05C64.889 314.581 63.4367 312.628 62.518 310.383C61.5992 308.138 61.2456 305.677 61.4917 303.242C61.6257 302.08 61.7875 300.557 62.8571 299.912C64.0299 299.205 65.376 300.089 66.1841 301.009C67.7377 302.778 67.9202 305.241 68.3463 307.499C68.9187 310.533 70.394 313.437 68.8552 316.435C68.148 317.812 66.1663 316.583 66.8742 315.204V315.204Z" fill="#FAFAFA"/>
<path d="M60.0176 338.494C59.1933 337.069 57.5215 336.925 56.1054 336.657C55.2192 336.505 54.348 336.267 53.5024 335.947C52.5842 335.583 51.7009 335.124 50.7738 334.784C50 334.416 49.1323 334.335 48.3097 334.553C48.2634 334.57 47.7452 334.873 47.7253 334.862C47.6514 334.82 47.8508 334.541 47.8335 334.541C47.8444 334.541 47.9249 334.667 47.9422 334.679C48.2924 334.936 48.5837 335.307 48.9331 335.575C50.366 336.668 52.0232 337.381 53.7673 337.657C55.6995 337.977 57.6774 337.725 59.4835 336.929C59.7484 336.776 60.0581 336.736 60.3497 336.817C60.6412 336.899 60.8927 337.095 61.053 337.366C61.2044 337.646 61.2461 337.978 61.1691 338.29C61.0921 338.602 60.9026 338.869 60.6415 339.034C58.4529 340.036 56.0516 340.396 53.6876 340.077C51.3236 339.757 49.0834 338.77 47.2004 337.218C46.2656 336.436 45.2292 335.393 45.622 334C45.9861 332.709 47.5043 332.138 48.6367 332.01C51.1066 331.73 53.2804 333.508 55.6053 334.074C58.0324 334.664 60.5545 334.767 61.9986 337.263C62.774 338.603 60.7903 339.829 60.0176 338.494L60.0176 338.494Z" fill="#FAFAFA"/>
<path d="M66.0413 323.663C66.9342 321.456 67.0347 318.977 66.3236 316.696C65.6125 314.416 64.1393 312.491 62.1827 311.287C62.0942 311.232 62.0047 311.18 61.9141 311.129C61.7457 311.099 61.72 311.057 61.8373 311.004C61.6502 310.333 61.9102 310.86 61.979 311.03C62.1872 311.546 62.3984 312.06 62.6127 312.573C63.0909 313.72 63.5818 314.86 64.0855 315.993C65.1234 318.331 66.209 320.647 67.3967 322.903C68.1183 324.273 66.1374 325.504 65.4156 324.133C64.2656 321.949 63.2117 319.708 62.2033 317.446C61.71 316.34 61.2287 315.227 60.7593 314.109C60.5532 313.618 60.3496 313.126 60.1485 312.632C59.867 312.105 59.6757 311.529 59.5835 310.931C59.5838 310.605 59.6487 310.283 59.7739 309.985C59.8992 309.688 60.0819 309.422 60.3103 309.204C60.5387 308.987 60.8076 308.823 61.0996 308.723C61.3915 308.623 61.7 308.59 62.0049 308.625C63.1338 308.936 64.1668 309.555 65.002 310.42C66.691 311.919 67.9387 313.902 68.5961 316.133C69.4131 319.031 69.2092 322.145 68.0223 324.894C67.8673 325.171 67.6158 325.373 67.3221 325.455C67.0283 325.536 66.716 325.492 66.4529 325.331C66.1957 325.163 66.0096 324.895 65.9329 324.585C65.8563 324.274 65.8951 323.944 66.0413 323.663V323.663Z" fill="#FAFAFA"/>
<path d="M74.247 335.615C75.8943 336.4 77.9042 334.902 79.3799 334.258C81.0297 333.539 82.7945 333.469 84.476 332.896C85.1088 332.714 85.6623 332.303 86.0423 331.735C86.0939 331.62 86.1541 331.509 86.2224 331.404C86.164 331.419 86.4692 331.62 86.3378 331.591C86.2202 331.566 86.103 331.535 85.9846 331.513C85.559 331.44 85.1287 331.403 84.6976 331.401C82.8574 331.374 81.0402 331.839 79.4134 332.754C77.7866 333.669 76.4025 335.003 75.3884 336.635C74.5923 337.951 72.6055 336.73 73.4073 335.405C74.6732 333.333 76.4283 331.649 78.4976 330.523C80.5668 329.396 82.8779 328.866 85.2002 328.985C86.3499 329.063 87.7568 329.198 88.3474 330.419C88.9505 331.666 88.0714 333.193 87.1959 334.023C85.5156 335.616 83.1943 335.531 81.148 336.169C79.7826 336.594 78.5532 337.384 77.2103 337.874C75.8714 338.403 74.3896 338.348 73.089 337.72C72.8279 337.555 72.6384 337.288 72.5614 336.976C72.4844 336.664 72.5261 336.332 72.6775 336.052C72.836 335.779 73.0875 335.581 73.3798 335.499C73.672 335.418 73.9826 335.459 74.247 335.615V335.615Z" fill="#FAFAFA"/>
<path d="M195.527 342.465C189.404 320.902 191.076 297.687 200.217 277.367C200.851 275.951 202.83 277.187 202.198 278.597C195.409 293.882 192.869 310.909 194.877 327.676C195.459 332.466 196.416 337.196 197.739 341.816C197.808 342.124 197.762 342.448 197.61 342.72C197.459 342.992 197.214 343.191 196.927 343.275C196.641 343.359 196.334 343.321 196.073 343.17C195.812 343.019 195.616 342.766 195.527 342.465V342.465Z" fill="#FAFAFA"/>
<path d="M191.927 315.196L175.472 292.107L177.61 291.492C177.315 299.349 178.427 307.194 180.889 314.61C183.017 320.997 186.691 329.33 194.087 329.586C195.559 329.637 195.566 332.076 194.087 332.024C186.217 331.751 181.884 324.071 179.329 317.121C176.353 308.96 174.986 300.237 175.316 291.492C175.324 291.229 175.411 290.975 175.565 290.769C175.719 290.562 175.931 290.413 176.17 290.345C176.409 290.276 176.663 290.29 176.894 290.386C177.125 290.482 177.321 290.654 177.453 290.877L193.908 313.965C194.799 315.216 192.808 316.432 191.927 315.196V315.196Z" fill="#FAFAFA"/>
<path d="M192.778 305.268L202.526 290.105C202.645 289.905 202.815 289.745 203.016 289.645C203.218 289.544 203.442 289.507 203.662 289.538C203.883 289.568 204.09 289.666 204.261 289.818C204.431 289.97 204.557 290.17 204.623 290.396C206.67 296.098 206.745 302.387 204.834 308.142C202.923 313.897 199.15 318.743 194.188 321.816C193.926 321.966 193.62 322.002 193.333 321.917C193.046 321.831 192.802 321.631 192.652 321.358C192.502 321.085 192.457 320.76 192.528 320.453C192.598 320.146 192.779 319.88 193.03 319.711C197.555 316.908 200.988 312.478 202.708 307.22C204.428 301.963 204.323 296.226 202.411 291.044L204.507 291.335L194.759 306.499C193.931 307.787 191.942 306.569 192.778 305.268H192.778Z" fill="#FAFAFA"/>
<path d="M201.364 276.526C203.62 276.407 205.965 276.261 207.854 274.793C208.567 274.232 209.175 273.534 209.645 272.735C209.877 272.352 210.075 271.947 210.236 271.526C210.405 271.122 210.507 270.691 210.537 270.251C210.537 270.368 210.428 270.157 210.533 270.25L210.698 270.389C210.757 270.473 210.843 270.532 210.941 270.553C211.038 270.574 211.139 270.557 211.225 270.504C211.404 270.528 211.28 270.209 211.313 270.776C211.412 271.384 211.414 272.006 211.32 272.614C211.255 272.91 211.132 273.187 210.96 273.43C210.788 273.672 210.57 273.873 210.321 274.021C210.071 274.169 209.796 274.259 209.511 274.288C209.227 274.316 208.94 274.281 208.669 274.184C208.285 274.031 207.914 273.845 207.558 273.628L207.455 273.573C207.329 273.509 207.318 273.504 207.424 273.558C207.336 273.401 207.286 273.709 207.432 273.532L207.336 273.531L207.452 273.523C207.516 273.51 207.576 273.482 207.628 273.441C207.68 273.4 207.723 273.347 207.753 273.286C207.79 273.164 207.796 273.146 207.771 273.233C207.734 273.286 207.733 273.529 207.751 273.293C207.745 273.372 207.745 273.452 207.745 273.531C207.743 273.734 207.756 273.938 207.756 274.141C207.779 274.647 207.676 275.15 207.455 275.599C207.281 275.902 207.032 276.149 206.736 276.314C206.44 276.478 206.107 276.554 205.774 276.533C205.025 276.497 204.6 275.941 203.968 275.639C203.828 275.563 203.669 275.539 203.515 275.571C203.361 275.602 203.221 275.687 203.118 275.812C203.035 275.924 202.983 276.056 202.967 276.197C202.951 276.337 202.972 276.479 203.026 276.608C203.172 276.889 203.211 277.219 203.135 277.53C203.058 277.84 202.872 278.107 202.615 278.276C202.351 278.436 202.039 278.48 201.746 278.398C201.452 278.316 201.201 278.116 201.045 277.839C200.789 277.353 200.658 276.803 200.666 276.246C200.674 275.689 200.819 275.144 201.089 274.667C201.358 274.189 201.741 273.795 202.199 273.524C202.658 273.254 203.175 273.117 203.699 273.127C204.049 273.132 204.395 273.204 204.72 273.339C205.122 273.478 205.491 273.706 205.803 274.008C206.21 274.545 205.929 273.995 205.912 274.106C205.914 274.093 205.504 274.347 205.474 274.369L205.434 274.48C205.463 274.343 205.468 274.347 205.45 274.49C205.451 274.374 205.462 274.258 205.461 274.141C205.423 273.602 205.46 273.06 205.573 272.533C205.668 272.197 205.843 271.892 206.082 271.649C206.321 271.406 206.615 271.233 206.936 271.147C207.552 271.042 208.184 271.175 208.716 271.523C208.919 271.65 209.129 271.765 209.344 271.867C209.155 271.791 209.407 271.892 209.436 271.88C209.576 271.823 209.301 271.876 209.288 271.883C209.208 271.92 209.081 272.099 209.069 272.101C209.12 272.09 209.117 271.902 209.119 271.867C209.146 271.44 209.011 271.014 209.011 270.587C208.996 270.182 209.075 269.78 209.239 269.414C209.404 269.049 209.649 268.732 209.955 268.49C210.282 268.234 210.683 268.105 211.088 268.125C211.494 268.145 211.882 268.312 212.185 268.599C213.225 269.614 212.8 271.275 212.335 272.471C211.818 273.831 211.023 275.053 210.008 276.048C208.993 277.044 207.782 277.787 206.464 278.226C204.801 278.704 203.087 278.952 201.364 278.964C201.06 278.964 200.768 278.835 200.553 278.607C200.338 278.378 200.217 278.068 200.217 277.745C200.217 277.422 200.338 277.111 200.553 276.883C200.768 276.654 201.06 276.526 201.364 276.526V276.526Z" fill="#FAFAFA"/>
<path d="M200.389 277.722C200.177 275.442 199.932 273.015 198.568 271.144C197.974 270.337 197.234 269.663 196.393 269.163C196.009 268.929 195.604 268.738 195.183 268.591C194.948 268.51 194.709 268.454 194.471 268.384C194.05 268.261 194.551 268.371 194.336 268.353C194.274 268.347 194.213 268.345 194.152 268.347C194.007 268.356 193.988 268.355 194.097 268.344C193.93 268.242 193.982 268.454 194.057 268.347L194.125 268.293C194.209 268.209 194.266 268.098 194.288 267.977C194.31 267.856 194.296 267.731 194.247 267.619C194.26 267.463 194.005 267.584 194.376 267.522C194.978 267.369 195.6 267.332 196.213 267.411C196.498 267.464 196.768 267.58 197.007 267.752C197.247 267.924 197.449 268.148 197.601 268.409C197.753 268.67 197.852 268.962 197.89 269.266C197.929 269.57 197.906 269.879 197.824 270.173C197.681 270.611 197.511 271.037 197.315 271.451C197.389 271.257 197.31 271.483 197.296 271.533C197.254 271.683 197.327 271.741 197.28 271.567C197.27 271.486 197.247 271.407 197.214 271.333C197.178 271.272 197.129 271.222 197.072 271.184C196.939 271.132 196.936 271.127 197.063 271.167C197.046 271.137 196.794 271.171 197.061 271.159C197.169 271.155 197.277 271.158 197.385 271.152C197.552 271.143 197.717 271.123 197.883 271.115C198.365 271.066 198.85 271.164 199.281 271.399C199.606 271.605 199.864 271.912 200.018 272.28C200.173 272.647 200.217 273.056 200.144 273.451C199.948 274.03 199.699 274.587 199.401 275.114C199.357 275.259 199.356 275.415 199.397 275.561C199.439 275.707 199.521 275.835 199.634 275.93C199.746 276.024 199.883 276.08 200.026 276.09C200.169 276.099 200.312 276.062 200.434 275.982C201.724 275.216 202.882 277.321 201.592 278.088C201.129 278.384 200.598 278.54 200.058 278.54C199.517 278.54 198.987 278.384 198.523 278.088C198.06 277.792 197.681 277.367 197.428 276.86C197.174 276.353 197.055 275.781 197.084 275.208C197.185 274.464 197.443 273.753 197.838 273.13C197.839 273.13 197.961 272.923 197.913 272.94C197.615 273.041 198.062 273.437 198.123 273.504L198.232 273.555C198.104 273.525 198.111 273.523 198.252 273.549C198.147 273.544 198.043 273.545 197.938 273.549C197.413 273.625 196.879 273.605 196.36 273.492C196.047 273.395 195.762 273.215 195.532 272.97C195.303 272.724 195.136 272.42 195.047 272.086C194.933 271.407 195.051 270.707 195.381 270.112C195.416 270.029 195.6 269.58 195.545 269.744C195.551 269.724 195.64 269.417 195.636 269.417C195.522 269.416 195.757 269.836 195.619 269.54C195.459 269.194 195.776 269.9 195.798 269.807C195.808 269.768 195.585 269.782 195.574 269.782C195.173 269.793 194.78 269.943 194.376 269.96C193.985 269.99 193.593 269.913 193.237 269.738C192.881 269.562 192.573 269.294 192.342 268.957C192.104 268.601 191.99 268.168 192.019 267.733C192.049 267.297 192.22 266.886 192.502 266.569C193.439 265.553 194.963 265.911 196.072 266.343C197.326 266.826 198.473 267.578 199.442 268.554C200.505 269.645 201.312 270.987 201.798 272.47C202.294 274.176 202.591 275.939 202.683 277.722C202.681 278.045 202.56 278.353 202.345 278.582C202.13 278.81 201.84 278.939 201.536 278.941C201.234 278.934 200.946 278.804 200.732 278.576C200.519 278.349 200.396 278.043 200.389 277.722V277.722Z" fill="#FAFAFA"/>
<path d="M200.489 275.173C201.462 273.225 202.627 271.393 203.963 269.707C204.277 269.31 204.599 268.922 204.932 268.543C205.24 268.241 205.524 267.912 205.781 267.561C205.83 267.474 205.819 267.427 205.846 267.408C205.867 267.324 205.868 267.318 205.85 267.392C205.832 267.44 205.831 267.494 205.847 267.543C205.833 267.64 205.939 267.62 205.837 267.527C206.019 267.694 206.16 267.85 206.446 267.757C206.553 267.722 206.624 267.598 206.707 267.552C206.787 267.507 206.685 267.513 206.706 267.582C206.751 267.722 206.869 268.039 206.941 268.225L204.728 268.873C204.699 268.723 204.594 268.572 204.731 268.746C204.68 268.683 204.625 268.624 204.566 268.57C204.64 268.635 204.619 268.627 204.505 268.546C204.664 268.608 204.336 268.492 204.332 268.491C204.553 268.541 204.028 268.541 204.22 268.498C204.013 268.556 203.822 268.667 203.664 268.821C203.506 268.975 203.386 269.168 203.313 269.382C203.078 270.045 202.977 270.752 203.014 271.459C203.01 272.267 203.088 273.073 203.248 273.863C203.322 274.175 203.28 274.504 203.131 274.784C202.981 275.063 202.736 275.27 202.447 275.363C202.154 275.445 201.842 275.402 201.578 275.243C201.314 275.084 201.119 274.821 201.036 274.511C200.577 272.238 200.358 269.294 201.828 267.371C202.145 266.94 202.555 266.597 203.023 266.371C203.492 266.145 204.005 266.043 204.519 266.074C205.084 266.116 205.622 266.347 206.057 266.733C206.492 267.12 206.801 267.642 206.941 268.225C207.022 268.537 206.983 268.87 206.832 269.151C206.682 269.433 206.433 269.639 206.14 269.725C205.846 269.811 205.533 269.769 205.268 269.61C205.003 269.45 204.809 269.185 204.728 268.873C204.536 268.479 204.436 268.042 204.435 267.598C204.435 267.153 204.535 266.716 204.726 266.321C204.925 265.956 205.231 265.67 205.596 265.506C205.962 265.342 206.368 265.309 206.753 265.412C207.137 265.547 207.473 265.803 207.717 266.146C207.961 266.488 208.102 266.901 208.122 267.33C208.125 267.721 208.053 268.108 207.913 268.469C207.772 268.83 207.564 269.157 207.301 269.431C206.432 270.487 205.505 271.464 204.717 272.597C203.88 273.804 203.128 275.076 202.47 276.403C202.394 276.541 202.293 276.662 202.173 276.759C202.053 276.856 201.916 276.927 201.771 276.967C201.625 277.008 201.473 277.017 201.324 276.996C201.175 276.974 201.031 276.921 200.901 276.84C200.771 276.76 200.657 276.652 200.566 276.525C200.475 276.397 200.408 276.252 200.37 276.097C200.332 275.942 200.323 275.781 200.343 275.622C200.363 275.464 200.413 275.311 200.489 275.173V275.173Z" fill="#FAFAFA"/>
<path d="M3.05176e-05 399.53H495.569V401.697H3.05176e-05V399.53Z" fill="#FAFAFA"/>
<path d="M402.526 305.036C402.526 302.912 404.854 301.191 407.726 301.191C410.597 301.191 412.926 302.912 412.926 305.036C412.926 307.159 410.597 308.88 407.726 308.88C404.854 308.88 402.526 307.159 402.526 305.036Z" fill="#FAFAFA"/>
<path d="M440.734 317.529C437.862 317.529 435.534 315.808 435.534 313.684C435.534 311.561 437.862 309.84 440.734 309.84C443.606 309.84 445.934 311.561 445.934 313.684C445.934 315.808 443.606 317.529 440.734 317.529Z" fill="#FAFAFA"/>
<path d="M394.613 336.269C391.741 336.269 389.413 334.548 389.413 332.425C389.413 330.302 391.741 328.581 394.613 328.581C397.484 328.581 399.813 330.302 399.813 332.425C399.813 334.548 397.484 336.269 394.613 336.269Z" fill="#FAFAFA"/>
<path d="M380.929 345.108C381.183 345.135 381.44 345.111 381.686 345.037C382.241 344.761 382.715 344.331 383.06 343.793C383.405 343.254 383.607 342.628 383.645 341.978C383.796 341.299 383.748 340.588 383.509 339.939C383.27 339.29 382.851 338.734 382.307 338.344C382.159 338.264 381.999 338.211 381.834 338.187C380.577 338 379.361 339.407 379.118 341.317C378.875 343.227 379.686 344.922 380.929 345.108Z" fill="#FAFAFA"/>
<path d="M417.553 326.651C418.804 326.834 419.617 328.531 419.369 330.442C419.121 332.353 417.906 333.753 416.656 333.57C415.405 333.387 414.592 331.69 414.84 329.779C415.087 327.868 416.302 326.468 417.553 326.651Z" fill="#FAFAFA"/>
<path d="M399.834 318.692C400.082 316.781 401.297 315.381 402.547 315.564C403.798 315.747 404.611 317.445 404.363 319.355C404.116 321.266 402.901 322.666 401.65 322.483C400.399 322.3 399.586 320.603 399.834 318.692Z" fill="#FAFAFA"/>
<path d="M426.347 310.098C425.096 309.915 424.283 308.217 424.531 306.307C424.779 304.396 425.994 302.995 427.244 303.179C428.495 303.362 429.308 305.059 429.061 306.97C428.813 308.881 427.598 310.281 426.347 310.098Z" fill="#FAFAFA"/>
<path d="M421.914 338.95C421.924 337.494 423.53 336.326 425.5 336.342C427.47 336.359 429.059 337.552 429.048 339.009C429.038 340.465 427.432 341.633 425.462 341.616C423.492 341.6 421.903 340.407 421.914 338.95Z" fill="#FAFAFA"/>
<path d="M448.063 347.735C446.093 347.719 444.504 346.525 444.515 345.069C444.525 343.612 446.131 342.445 448.101 342.461C450.071 342.477 451.659 343.67 451.649 345.127C451.638 346.583 450.033 347.751 448.063 347.735Z" fill="#FAFAFA"/>
<path d="M416.331 360.331C414.36 360.315 412.772 359.122 412.782 357.665C412.793 356.209 414.399 355.041 416.369 355.057C418.339 355.073 419.927 356.267 419.917 357.723C419.906 359.18 418.301 360.347 416.331 360.331Z" fill="#FAFAFA"/>
<path d="M406.9 366.319C407.074 366.339 407.25 366.324 407.419 366.274C407.801 366.088 408.129 365.796 408.368 365.428C408.607 365.061 408.749 364.632 408.779 364.187C408.885 363.722 408.856 363.234 408.695 362.788C408.535 362.341 408.25 361.957 407.879 361.687C407.778 361.631 407.668 361.593 407.555 361.576C406.694 361.441 405.853 362.399 405.676 363.708C405.5 365.017 406.048 366.184 406.9 366.319Z" fill="#FAFAFA"/>
<path d="M432.115 353.862C432.972 353.995 433.522 355.164 433.342 356.473C433.163 357.783 432.322 358.737 431.465 358.604C430.608 358.471 430.059 357.302 430.238 355.993C430.418 354.684 431.258 353.73 432.115 353.862Z" fill="#FAFAFA"/>
<path d="M420 348.304C420.179 346.994 421.019 346.04 421.876 346.173C422.734 346.306 423.283 347.475 423.104 348.784C422.924 350.093 422.084 351.047 421.227 350.915C420.37 350.782 419.82 349.613 420 348.304Z" fill="#FAFAFA"/>
<path d="M438.23 342.557C437.373 342.424 436.824 341.255 437.003 339.946C437.182 338.636 438.023 337.682 438.88 337.815C439.737 337.948 440.286 339.117 440.107 340.426C439.928 341.735 439.087 342.689 438.23 342.557Z" fill="#FAFAFA"/>
<path d="M471.579 333.677C471.594 331.554 473.935 329.852 476.807 329.875C479.678 329.899 481.994 331.639 481.979 333.762C481.963 335.885 479.623 337.587 476.751 337.563C473.879 337.54 471.564 335.8 471.579 333.677Z" fill="#FAFAFA"/>
<path d="M509.696 346.481C506.824 346.458 504.509 344.718 504.524 342.595C504.539 340.472 506.88 338.77 509.752 338.793C512.624 338.817 514.939 340.557 514.924 342.68C514.909 344.803 512.568 346.505 509.696 346.481Z" fill="#FAFAFA"/>
<path d="M463.44 364.844C460.568 364.821 458.253 363.081 458.268 360.958C458.284 358.835 460.624 357.133 463.496 357.156C466.368 357.18 468.683 358.92 468.668 361.043C468.653 363.166 466.312 364.868 463.44 364.844Z" fill="#FAFAFA"/>
<path d="M449.693 373.572C449.947 373.601 450.204 373.579 450.45 373.506C451.007 373.235 451.485 372.809 451.834 372.274C452.182 371.738 452.389 371.113 452.432 370.464C452.587 369.786 452.545 369.075 452.311 368.424C452.076 367.773 451.661 367.214 451.12 366.819C450.973 366.738 450.813 366.683 450.648 366.658C449.393 366.461 448.167 367.858 447.91 369.766C447.653 371.674 448.451 373.375 449.693 373.572Z" fill="#FAFAFA"/>
<path d="M486.449 355.414C487.699 355.607 488.5 357.311 488.238 359.22C487.977 361.129 486.752 362.519 485.502 362.326C484.253 362.132 483.452 360.428 483.714 358.52C483.975 356.611 485.2 355.221 486.449 355.414Z" fill="#FAFAFA"/>
<path d="M468.789 347.311C469.05 345.402 470.275 344.012 471.525 344.205C472.774 344.398 473.575 346.102 473.313 348.011C473.052 349.92 471.827 351.31 470.577 351.117C469.328 350.923 468.527 349.219 468.789 347.311Z" fill="#FAFAFA"/>
<path d="M495.363 338.934C494.114 338.74 493.313 337.036 493.575 335.128C493.836 333.219 495.061 331.829 496.31 332.022C497.56 332.215 498.361 333.919 498.099 335.828C497.838 337.737 496.613 339.127 495.363 338.934Z" fill="#FAFAFA"/>
<path d="M439.431 324.866C439.431 340.333 473.869 312.709 503.279 334.449C539.167 360.979 569.171 342.049 569.167 324.866C569.163 309.4 539.104 278.441 503.279 278.441C467.454 278.441 439.431 309.4 439.431 324.866Z" fill="#FAFAFA"/>
<path d="M470.845 307.203C470.845 314.936 485.366 314.703 503.279 314.703C521.192 314.703 535.713 314.936 535.713 307.203C535.713 299.47 521.192 286.699 503.279 286.699C485.366 286.699 470.845 299.47 470.845 307.203Z" fill="#F0F0F0"/>
<path d="M726.505 358.95L726.551 369.803L686.3 375.16L686.231 359.142L726.505 358.95Z" fill="#FFB6B6"/>
<path d="M721.015 370.538L721.617 358.966L721.76 356.137L747.558 353.732L747.598 361.87L740.369 363.354L747.619 367.038L747.711 388.612C747.716 389.647 747.409 390.657 746.836 391.494C746.263 392.33 745.453 392.95 744.524 393.262C743.596 393.575 742.597 393.563 741.676 393.23C740.754 392.896 739.956 392.258 739.4 391.408L736.045 386.304L728.133 374.233L720.822 374.266L721.015 370.538Z" fill="#2F2E41"/>
<path d="M548.118 341.271C554.848 359.963 560.538 374.428 562.873 376.899C565.463 379.651 583.002 380.8 604.68 381.114C627.562 381.439 655.052 380.843 674.477 380.28H674.487C689.161 379.846 699.235 379.424 699.235 379.424L699.215 373.442L699.164 359.074L699.153 356.203C699.153 356.203 698.664 356.062 697.767 355.769C696.105 355.26 693.025 354.306 688.987 353.039C676.302 349.051 654.236 342.04 637.585 336.319C632.13 334.433 627.246 332.7 623.473 331.248C619.149 329.601 616.274 328.322 615.631 327.639C611.828 323.695 610.145 327.639 607.739 331.573C605.333 335.517 604.588 331.573 601.437 328.68C598.287 325.786 591.179 329.763 591.179 329.763C591.179 329.763 591.118 327.141 591.016 322.969C590.863 316.804 590.639 307.203 590.425 297.602C590.435 297.592 590.435 297.592 590.425 297.592C590.415 297.169 590.404 296.736 590.394 296.313C585.5 300.832 580.269 304.971 575.058 310.15C571.663 313.52 566.483 319.101 562.791 323.088C562.047 323.901 561.089 324.974 560.334 325.819C555.883 330.617 551.798 335.784 548.118 341.271Z" fill="#2F2E41"/>
<path d="M714.089 390.124L713.31 400.946L672.783 402.83L673.934 386.858L714.089 390.124Z" fill="#FFB6B6"/>
<path d="M707.739 401.204L709.207 389.729L709.575 386.911L735.474 386.727L734.893 394.843L727.582 395.699L734.516 400.001L732.966 421.521C732.891 422.552 732.509 423.531 731.873 424.315C731.238 425.098 730.384 425.645 729.436 425.877C728.487 426.108 727.494 426.011 726.601 425.599C725.708 425.188 724.962 424.484 724.472 423.591L714.54 405.495L707.26 404.91L707.739 401.204Z" fill="#2F2E41"/>
<path d="M539.492 386.164C547.67 399.752 648.404 413.037 686.224 405.495C686.152 404.411 686.04 403.317 685.908 402.223C685.347 397.411 684.297 392.503 683.42 387.627C683.053 385.579 682.706 383.531 682.441 381.494C681.166 381.277 682.563 381.418 680.891 381.136C678.771 380.736 676.634 380.45 674.487 380.28H674.477C673.824 380.226 673.09 380.172 672.224 380.107C652.962 378.709 628.438 384.604 611.226 374.58C606.362 371.741 606.057 370.94 605.343 370.04C601.203 364.774 600.805 369.13 597.236 371.015C593.667 372.901 594.32 369.596 593.321 366.714C592.321 363.831 587.906 364.211 585.347 363.788C587.723 361.447 586.163 361.036 590.088 359.031C595.88 356.062 605.475 351.684 612.266 348.77C612.288 348.754 612.312 348.743 612.338 348.737C615.203 347.567 619.241 345.714 621.821 344.554C623.819 343.655 627.307 341.965 628.408 341.52C630.835 340.534 635.026 349.853 637.585 348.239C638.493 347.653 639.186 347.198 639.533 346.982C643.846 344.24 640.461 345.67 640.909 342.344C640.97 341.932 640.797 340.87 640.848 340.513C640.96 339.667 640.695 338.259 641.083 337.749C641.48 337.251 642.796 339.765 643.622 340.133C643.989 340.307 645.437 341.509 646.619 341.379C651.718 340.783 655.185 335.496 656.949 330.197C671.795 323.359 681.605 307.387 683.94 292.477C685.918 279.886 682.4 269.83 679.29 261.541C676.496 254.108 675.629 255.137 672.529 249.828C672.621 248.874 672.621 249.123 672.621 249.188C672.621 249.091 672.642 248.701 672.703 247.422C672.866 243.998 673.253 233.888 673.437 229.174C672.157 227.665 670.717 226.32 669.144 225.165C664.321 221.351 657.102 219.162 651.83 218.089C645.824 216.865 638.044 217.743 633.7 218.414C626.929 219.455 624.686 220.853 619.037 222.261C619.027 233.693 616.784 230.507 617.885 245.331C618.996 260.154 580.269 304.971 575.058 310.151C571.663 313.521 566.483 319.101 562.791 323.089C562.047 323.901 561.089 324.974 560.334 325.819C556.011 330.663 547.231 342.669 546.813 343.384C546.283 344.283 546.058 344.988 545.63 345.855C545.62 345.876 531.324 372.576 539.492 386.164Z" fill="#2F2E41"/>
<path d="M406.618 264.373L408.704 303.271C408.705 304.258 408.523 305.236 408.168 306.148C407.813 307.061 407.292 307.889 406.635 308.588C405.978 309.286 405.198 309.839 404.339 310.217C403.481 310.594 402.561 310.788 401.632 310.787C381.583 321.643 375.324 321.946 357.36 310.787C356.431 310.788 355.511 310.594 354.653 310.217C353.794 309.839 353.014 309.286 352.357 308.588C351.7 307.889 351.179 307.06 350.824 306.148C350.469 305.236 350.287 304.258 350.288 303.271L352.374 263.43L350.288 252.9C350.287 251.912 350.469 250.934 350.824 250.022C351.179 249.11 351.7 248.281 352.357 247.583C353.014 246.885 353.794 246.331 354.653 245.954C355.511 245.576 356.431 245.383 357.36 245.384H401.632C402.561 245.383 403.481 245.576 404.339 245.954C405.198 246.331 405.978 246.885 406.635 247.583C407.292 248.281 407.813 249.11 408.168 250.022C408.523 250.934 408.705 251.912 408.704 252.9L406.618 264.373Z" fill="#F0F0F0"/>
<path d="M441.042 242.058L443.366 246.997L403.488 271.988L406.618 294.159L445.91 252.404L448.344 257.577L449.115 255.939C449.803 254.477 450.128 252.852 450.059 251.219C449.989 249.585 449.529 247.998 448.72 246.607C447.911 245.216 446.781 244.068 445.437 243.272C444.093 242.476 442.58 242.058 441.042 242.058V242.058Z" fill="#F0F0F0"/>
<path d="M395.143 245.938C395.143 252.367 387.674 257.578 378.453 257.578C369.231 257.578 361.762 252.367 361.762 245.938C361.762 245.75 361.773 245.572 361.783 245.384H395.122C395.133 245.572 395.143 245.75 395.143 245.938Z" fill="#FAFAFA"/>
<path d="M373.759 227.521C373.76 226.232 374.242 224.996 375.1 224.085C375.958 223.173 377.121 222.661 378.334 222.659H378.572C379.785 222.661 380.948 223.173 381.806 224.085C382.663 224.996 383.146 226.232 383.147 227.521V261.457H373.759V227.521Z" fill="#F0F0F0"/>
<path d="M559.074 287.01C559.662 286.29 560.383 285.707 561.192 285.298C562.001 284.888 562.882 284.661 563.778 284.63C563.778 284.63 596.162 280.493 600.946 277C602.566 276.945 604.146 277.534 605.378 278.653C606.609 279.772 607.404 281.339 607.605 283.047L638.479 289.23C639.938 289.526 641.227 290.425 642.063 291.729C642.899 293.033 643.214 294.637 642.939 296.188C642.664 297.739 641.821 299.11 640.596 300.002C639.37 300.893 637.862 301.232 636.402 300.943L605.686 294.792C605.104 296.238 604.075 297.431 602.769 298.172C601.464 298.912 599.959 299.158 598.504 298.867L563.917 291.94C558.984 290.953 555.786 291.04 559.074 287.01Z" fill="#F0F0F0"/>
<path d="M649.736 232.678L657.199 155.868C657.507 152.613 656.597 149.36 654.667 146.811C652.737 144.263 649.942 142.622 646.884 142.245V142.245C645.302 142.049 643.699 142.198 642.173 142.682C640.647 143.167 639.23 143.976 638.008 145.062C636.786 146.147 635.784 147.485 635.065 148.995C634.346 150.505 633.923 152.155 633.823 153.844L628.373 233.884L623.131 282.37C621.114 282.999 619.329 284.272 618.017 286.017C616.705 287.761 615.93 289.893 615.798 292.122C615.665 294.351 616.182 296.569 617.277 298.475C618.373 300.381 619.993 301.883 621.92 302.776C623.846 303.669 625.984 303.91 628.044 303.467C630.104 303.023 631.986 301.917 633.433 300.297C634.88 298.678 635.824 296.625 636.135 294.416C636.446 292.207 636.109 289.95 635.171 287.952L649.736 232.678Z" fill="#FFB6B6"/>
<path d="M662.32 172.249C662.918 171.754 663.346 171.065 663.539 170.287C663.732 169.508 663.68 168.684 663.389 167.941C663.048 167.016 662.986 166.002 663.213 165.038C663.259 164.853 663.316 164.67 663.385 164.492C663.822 163.432 664.011 162.275 663.937 161.12C663.863 159.966 663.528 158.847 662.96 157.859C661.047 154.637 660.495 150.089 660.507 146.105C660.52 141.745 660.755 137.321 659.786 133.085C658.387 126.974 653.962 121.082 646.735 122.59C643.671 123.282 640.925 125.075 638.959 127.668C634.782 133.03 633.866 140.094 633.05 146.861L632.142 144.014C631.372 151.421 629.202 158.587 625.763 165.082C627.345 164.98 628.162 167.335 627.466 168.848C626.771 170.361 625.264 171.208 623.946 172.144C622.286 173.323 620.624 175.187 621.757 177.505C622.043 178.051 622.431 178.528 622.899 178.907C623.366 179.286 623.903 179.558 624.474 179.706C635.211 182.749 646.424 183.4 657.409 181.617C659.848 181.22 662.492 180.563 663.995 178.483C665.498 176.402 664.771 172.556 662.32 172.249Z" fill="#1EEC58"/>
</svg>
